<svg xmlns="http://www.w3.org/2000/svg" x="0px" y="0px" width="100" height="100" viewBox="0,0,256,256">
<g fill="#000000" fill-rule="nonzero" stroke="none" stroke-width="1" stroke-linecap="butt" stroke-linejoin="miter" stroke-miterlimit="10" stroke-dasharray="" stroke-dashoffset="0" font-family="none" font-weight="none" font-size="none" text-anchor="none" style="mix-blend-mode: normal"><g transform="scale(5.33333,5.33333)"><path d="M6,6h36v36h-36zM38,38v-28h-28v28zM12.97,15.288v10.908c0,4.99 2.736,7.906 7.366,7.906c4.63,0 7.51,-2.974 7.51,-7.906v-10.908h-3.73v10.908c0,2.822 -1.202,4.385 -3.694,4.385c-2.492,0 -3.73,-1.656 -3.73,-4.385v-10.908h-3.73zM32.654,17.513c1.325,0 2.282,-0.9 2.282,-2.225c0,-1.325 -0.965,-2.282 -2.282,-2.282c-1.318,0 -2.282,0.929 -2.282,2.282c0,1.354 0.965,2.225 2.282,2.225zM30.79,19.284v14.638h3.73v-14.638z"></path></g></g>
</svg>